<svg xmlns="http://www.w3.org/2000/svg" viewBox="0 0 600 400">
  <defs>
    <linearGradient id="itGrad" x1="0" y1="0" x2="1" y2="1">
      <stop offset="0%" stop-color="#0057FF"/>
      <stop offset="100%" stop-color="#0A84FF"/>
    </linearGradient>
  </defs>
  <rect width="600" height="400" rx="16" fill="#081B3A"/>
  <g transform="translate(100,100)">
    <path d="M0 0 L200 0 L200 160 L0 160 Z M50 20 L150 20 M50 60 L150 60 M50 100 L150 100 M50 140 L150 140" stroke="#0057FF" stroke-width="2" fill="none" opacity="0.4"/>
    <rect x="0" y="200" width="200" height="120" rx="12" fill="url(#itGrad)" opacity="0.2"/>
    <circle cx="100" cy="260" r="30" fill="#10B981" opacity="0.5"/>
    <path d="M90 260 L110 260 M100 250 L100 270" stroke="#fff" stroke-width="2"/>
  </g>
  <g transform="translate(350,120)">
    <rect x="0" y="0" width="180" height="140" rx="8" fill="#0A84FF" opacity="0.25"/>
    <rect x="20" y="20" width="140" height="20" fill="#4F9DFF" opacity="0.6"/>
    <rect x="20" y="50" width="100" height="20" fill="#0057FF" opacity="0.5"/>
    <rect x="20" y="80" width="120" height="20" fill="#10B981" opacity="0.4"/>
    <rect x="20" y="110" width="80" height="20" fill="#0A84FF" opacity="0.3"/>
  </g>
</svg>